<svg xmlns="http://www.w3.org/2000/svg" xmlns:xlink="http://www.w3.org/1999/xlink" width="172.984" height="67.612" viewBox="0 0 172.984 67.612">
  <defs>
    <linearGradient id="linear-gradient" y1="0.5" x2="1" y2="0.5" gradientUnits="objectBoundingBox">
      <stop offset="0" stop-color="#195b30"/>
      <stop offset="0.157" stop-color="#1e6833" stop-opacity="0.714"/>
      <stop offset="0.369" stop-color="#237637" stop-opacity="0.404"/>
      <stop offset="0.582" stop-color="#27803a" stop-opacity="0.18"/>
      <stop offset="0.792" stop-color="#2a863c" stop-opacity="0.043"/>
      <stop offset="1" stop-color="#2b893d" stop-opacity="0"/>
    </linearGradient>
    <linearGradient id="linear-gradient-2" y1="0.5" x2="1" y2="0.5" gradientUnits="objectBoundingBox">
      <stop offset="0" stop-color="#5fbfca"/>
      <stop offset="0.053" stop-color="#59bdc5" stop-opacity="0.886"/>
      <stop offset="0.176" stop-color="#4fb9bd" stop-opacity="0.651"/>
      <stop offset="0.302" stop-color="#46b6b5" stop-opacity="0.451"/>
      <stop offset="0.431" stop-color="#3eb3af" stop-opacity="0.29"/>
      <stop offset="0.562" stop-color="#39b1aa" stop-opacity="0.161"/>
      <stop offset="0.698" stop-color="#35b0a7" stop-opacity="0.071"/>
      <stop offset="0.84" stop-color="#32afa5" stop-opacity="0.016"/>
      <stop offset="1" stop-color="#32afa5" stop-opacity="0"/>
    </linearGradient>
    <linearGradient id="linear-gradient-5" y1="0.5" x2="1" y2="0.5" gradientUnits="objectBoundingBox">
      <stop offset="0" stop-color="#32afa5" stop-opacity="0"/>
      <stop offset="1" stop-color="#1f6e69"/>
    </linearGradient>
    <linearGradient id="linear-gradient-9" x1="0" y1="0.5" x2="1" y2="0.5" xlink:href="#linear-gradient-5"/>
    <linearGradient id="linear-gradient-10" x1="0" y1="0.5" x2="1" y2="0.5" xlink:href="#linear-gradient-2"/>
    <linearGradient id="linear-gradient-11" x1="0.388" y1="-0.018" x2="0.612" y2="1.018" gradientUnits="objectBoundingBox">
      <stop offset="0" stop-color="#cbd32f"/>
      <stop offset="1" stop-color="#81ba41" stop-opacity="0"/>
    </linearGradient>
  </defs>
  <g id="logo" transform="translate(-41.676 -28.688)">
    <path id="Path_1" data-name="Path 1" d="M81.607,56.692H86.83a.336.336,0,0,1,.336.336V80.435a.337.337,0,0,1-.336.338H81.607a.337.337,0,0,1-.336-.338V57.028A.336.336,0,0,1,81.607,56.692Z" transform="translate(21.195 5.551)" fill="#162c3b"/>
    <path id="Path_2" data-name="Path 2" d="M88.362,64.4h9.9a.337.337,0,0,1,.336.338v4.378a.336.336,0,0,1-.336.336h-9.9a.335.335,0,0,1-.336-.336V64.741A.336.336,0,0,1,88.362,64.4Z" transform="translate(24.806 9.731)" fill="#162c3b"/>
    <path id="Path_3" data-name="Path 3" d="M99.6,73.706a.335.335,0,0,1,.484-.072A9.54,9.54,0,0,0,105.6,75.9c1.651,0,2.493-.74,2.493-1.683,0-3.4-10.643-2.863-10.643-10.407,0-4.446,3.67-7.375,8.724-7.375a11.436,11.436,0,0,1,7.341,2.551.337.337,0,0,1,.08.413l-2.178,4.21a.334.334,0,0,1-.5.113,8.639,8.639,0,0,0-5.01-1.865c-1.785,0-2.561.74-2.561,1.717,0,3.436,10.643,2.627,10.643,10.239,0,4.04-3,7.509-8.554,7.509a12.53,12.53,0,0,1-8.517-3.233.338.338,0,0,1-.042-.436Z" transform="translate(29.5 5.403)" fill="#162c3b"/>
    <path id="Path_4" data-name="Path 4" d="M119.031,67.738h.506v-.3c0-1.449-1.179-1.921-2.459-1.921a8.815,8.815,0,0,0-4.466,1.449.337.337,0,0,1-.483-.134l-1.73-3.519a.332.332,0,0,1,.1-.419,13.617,13.617,0,0,1,7.114-2.09c4.783,0,7.748,2.661,7.748,7.073V78.211a.338.338,0,0,1-.338.338h-4.648a.336.336,0,0,1-.336-.338V77.5a9.3,9.3,0,0,1,.066-1.078h-.066a6.365,6.365,0,0,1-5.153,2.525,5.309,5.309,0,0,1-5.659-5.288C109.23,69.016,114.755,67.738,119.031,67.738Zm-2.391,6.869a3.173,3.173,0,0,0,2.964-3.063v-.472h-.54c-1.785,0-4.074.472-4.074,2.055A1.481,1.481,0,0,0,116.64,74.607Z" transform="translate(36.143 7.66)" fill="#162c3b"/>
    <path id="Path_5" data-name="Path 5" d="M122.443,61.2h4.916a.337.337,0,0,1,.338.336V62.72a9.123,9.123,0,0,1-.068,1.078h.068a6.119,6.119,0,0,1,5.523-3c3.5,0,6.229,1.616,6.229,6.5V78.211a.336.336,0,0,1-.336.338H133.96a.337.337,0,0,1-.336-.338V68.377c0-1.616-.64-2.291-1.919-2.291-2.593,0-3.772,2.155-3.772,4.612v7.512a.338.338,0,0,1-.338.338h-5.152a.338.338,0,0,1-.338-.338V61.539A.337.337,0,0,1,122.443,61.2Z" transform="translate(43.029 7.672)" fill="#162c3b"/>
    <path id="Path_6" data-name="Path 6" d="M152.293,60.8c5.12,0,8.016,3.57,8.016,8.386a14.323,14.323,0,0,1-.1,1.518.337.337,0,0,1-.335.3H149.229a3.872,3.872,0,0,0,4.04,3.1,8.571,8.571,0,0,0,4.475-1.551.336.336,0,0,1,.479.123l1.854,3.507a.334.334,0,0,1-.083.419,11.925,11.925,0,0,1-7.2,2.349c-6.2,0-9.533-4.478-9.533-9.094C143.266,64.773,146.7,60.8,152.293,60.8Zm2.257,6.871a2.408,2.408,0,0,0-2.391-2.593c-1.685,0-2.493,1.213-2.8,2.593Z" transform="translate(54.351 7.66)" fill="#162c3b"/>
    <path id="Path_10" data-name="Path 10" d="M144.5,75.1c-1.111,0-3.1-.271-3.1-2.224v-5.32h3.3a.337.337,0,0,0,.338-.336V63.347a.338.338,0,0,0-.338-.338h-3.3V58.36a.337.337,0,0,0-.336-.336H135.91a.337.337,0,0,0-.338.336V73.652c0,5.826,5.355,6.565,8.116,6.565a12.592,12.592,0,0,0,1.279-.072.335.335,0,0,0,.305-.335V75.428a.339.339,0,0,0-.356-.336C144.749,75.1,144.624,75.1,144.5,75.1Z" transform="translate(50.254 6.229)" fill="#162c3b"/>
    <path id="Path_12" data-name="Path 12" d="M66.074,90.91a1.311,1.311,0,0,1-.16.106c-.083.035-.1-.032-.119-.092l-.14-.116.006.008a.683.683,0,0,0-.214-.533c-.479-.627-.91-1.292-1.378-1.927-.481-.654-.916-1.338-1.409-1.984-.478-.624-.866-1.316-1.337-1.949-.721-.968-1.381-1.978-2.1-2.944-.157-.208-.267-.455-.43-.658-.686-.857-1.27-1.79-1.922-2.673-.635-.863-1.247-1.748-1.847-2.638-.675-1-1.409-1.955-2.07-2.961-.085-.128-.166-.257-.256-.382-.57-.8-1.145-1.606-1.714-2.414-.034-.048-.023-.128-.034-.194.052-.165.194-.213.335-.287a36.289,36.289,0,0,0,3.16-1.864c.862-.561,1.713-1.139,2.522-1.776.483-.379,1.007-.706,1.468-1.108a4.474,4.474,0,0,0,.786-.681.13.13,0,0,1,.111-.039l1.8,0c.089,0,.2.028.264-.011a2.211,2.211,0,0,1,.979-.117c.133-.011.288.028.393-.029a1.593,1.593,0,0,1,.715-.1c.111-.006.248.032.33-.019a1.4,1.4,0,0,1,.711-.119.977.977,0,0,0,.262-.028,11.068,11.068,0,0,1,1.592-.347c.854-.174,1.685-.419,2.522-.647.63-.173,1.233-.425,1.847-.646.553-.2,1.091-.436,1.623-.688A26.992,26.992,0,0,0,75.435,59.4c.481-.308.965-.606,1.418-.954.536-.413,1.1-.8,1.649-1.193a3.652,3.652,0,0,1-.026.863,3.887,3.887,0,0,0-.122.908.12.12,0,0,1-.031.059c-.134.176-.066.385-.1.578a3.661,3.661,0,0,0-.117.572c0,.4-.219.766-.154,1.17-.187.225-.094.512-.168.763a7.484,7.484,0,0,0-.234,1.013,11.075,11.075,0,0,1-.311,1.4c-.208.729-.387,1.466-.587,2.2-.23.836-.429,1.683-.709,2.5-.641,1.865-1.21,3.757-1.961,5.587-.444,1.085-.868,2.18-1.318,3.262-.436,1.045-.917,2.073-1.409,3.092-.675,1.4-1.353,2.795-2.11,4.153-.5.9-.968,1.81-1.489,2.695-.478.811-.9,1.654-1.437,2.43-.031.045-.009.128-.014.194l.006-.006C66.05,90.688,66.074,90.806,66.074,90.91Z" transform="translate(5.021 5.273)" fill="#81ba41"/>
    <path id="Path_13" data-name="Path 13" d="M66.074,90.91a1.311,1.311,0,0,1-.16.106c-.083.035-.1-.032-.119-.092l-.14-.116.006.008a.683.683,0,0,0-.214-.533c-.479-.627-.91-1.292-1.378-1.927-.481-.654-.916-1.338-1.409-1.984-.478-.624-.866-1.316-1.337-1.949-.721-.968-1.381-1.978-2.1-2.944-.157-.208-.267-.455-.43-.658-.686-.857-1.27-1.79-1.922-2.673-.635-.863-1.247-1.748-1.847-2.638-.675-1-1.409-1.955-2.07-2.961-.085-.128-.166-.257-.256-.382-.57-.8-1.145-1.606-1.714-2.414-.034-.048-.023-.128-.034-.194.052-.165.194-.213.335-.287a36.289,36.289,0,0,0,3.16-1.864c.862-.561,1.713-1.139,2.522-1.776.483-.379,1.007-.706,1.468-1.108a4.474,4.474,0,0,0,.786-.681.13.13,0,0,1,.111-.039l1.8,0c.089,0,.2.028.264-.011a2.211,2.211,0,0,1,.979-.117c.133-.011.288.028.393-.029a1.593,1.593,0,0,1,.715-.1c.111-.006.248.032.33-.019a1.4,1.4,0,0,1,.711-.119.977.977,0,0,0,.262-.028,11.068,11.068,0,0,1,1.592-.347c.854-.174,1.685-.419,2.522-.647.63-.173,1.233-.425,1.847-.646.553-.2,1.091-.436,1.623-.688A26.992,26.992,0,0,0,75.435,59.4c.481-.308.965-.606,1.418-.954.536-.413,1.1-.8,1.649-1.193a3.652,3.652,0,0,1-.026.863,3.887,3.887,0,0,0-.122.908.12.12,0,0,1-.031.059c-.134.176-.066.385-.1.578a3.661,3.661,0,0,0-.117.572c0,.4-.219.766-.154,1.17-.187.225-.094.512-.168.763a7.484,7.484,0,0,0-.234,1.013,11.075,11.075,0,0,1-.311,1.4c-.208.729-.387,1.466-.587,2.2-.23.836-.429,1.683-.709,2.5-.641,1.865-1.21,3.757-1.961,5.587-.444,1.085-.868,2.18-1.318,3.262-.436,1.045-.917,2.073-1.409,3.092-.675,1.4-1.353,2.795-2.11,4.153-.5.9-.968,1.81-1.489,2.695-.478.811-.9,1.654-1.437,2.43-.031.045-.009.128-.014.194l.006-.006C66.05,90.688,66.074,90.806,66.074,90.91Z" transform="translate(5.021 5.273)" opacity="0.4" fill="url(#linear-gradient)"/>
    <path id="Path_14" data-name="Path 14" d="M66.074,90.91a1.311,1.311,0,0,1-.16.106c-.083.035-.1-.032-.119-.092l-.14-.116.006.008a.683.683,0,0,0-.214-.533c-.479-.627-.91-1.292-1.378-1.927-.481-.654-.916-1.338-1.409-1.984-.478-.624-.866-1.316-1.337-1.949-.721-.968-1.381-1.978-2.1-2.944-.157-.208-.267-.455-.43-.658-.686-.857-1.27-1.79-1.922-2.673-.635-.863-1.247-1.748-1.847-2.638-.675-1-1.409-1.955-2.07-2.961-.085-.128-.166-.257-.256-.382-.57-.8-1.145-1.606-1.714-2.414-.034-.048-.023-.128-.034-.194.052-.165.194-.213.335-.287a36.289,36.289,0,0,0,3.16-1.864c.862-.561,1.713-1.139,2.522-1.776.483-.379,1.007-.706,1.468-1.108a4.474,4.474,0,0,0,.786-.681.13.13,0,0,1,.111-.039l1.8,0c.089,0,.2.028.264-.011a2.211,2.211,0,0,1,.979-.117c.133-.011.288.028.393-.029a1.593,1.593,0,0,1,.715-.1c.111-.006.248.032.33-.019a1.4,1.4,0,0,1,.711-.119.977.977,0,0,0,.262-.028,11.068,11.068,0,0,1,1.592-.347c.854-.174,1.685-.419,2.522-.647.63-.173,1.233-.425,1.847-.646.553-.2,1.091-.436,1.623-.688A26.992,26.992,0,0,0,75.435,59.4c.481-.308.965-.606,1.418-.954.536-.413,1.1-.8,1.649-1.193a3.652,3.652,0,0,1-.026.863,3.887,3.887,0,0,0-.122.908.12.12,0,0,1-.031.059c-.134.176-.066.385-.1.578a3.661,3.661,0,0,0-.117.572c0,.4-.219.766-.154,1.17-.187.225-.094.512-.168.763a7.484,7.484,0,0,0-.234,1.013,11.075,11.075,0,0,1-.311,1.4c-.208.729-.387,1.466-.587,2.2-.23.836-.429,1.683-.709,2.5-.641,1.865-1.21,3.757-1.961,5.587-.444,1.085-.868,2.18-1.318,3.262-.436,1.045-.917,2.073-1.409,3.092-.675,1.4-1.353,2.795-2.11,4.153-.5.9-.968,1.81-1.489,2.695-.478.811-.9,1.654-1.437,2.43-.031.045-.009.128-.014.194l.006-.006C66.05,90.688,66.074,90.806,66.074,90.91Z" transform="translate(5.021 5.273)" fill="url(#linear-gradient-2)"/>
    <path id="Path_15" data-name="Path 15" d="M60.846,94.229c0-.066-.017-.148.014-.192.538-.768.959-1.6,1.437-2.407.521-.877.99-1.782,1.489-2.67.757-1.346,1.435-2.731,2.11-4.115.492-1.01.973-2.028,1.409-3.064.45-1.072.874-2.157,1.318-3.232.751-1.813,1.32-3.687,1.961-5.535.281-.809.479-1.649.709-2.477.2-.724.379-1.454.587-2.176a10.884,10.884,0,0,0,.311-1.384,7.357,7.357,0,0,1,.234-1c.074-.249-.018-.533.168-.756-.065-.4.157-.764.154-1.159a3.6,3.6,0,0,1,.117-.567c.032-.191-.035-.4.1-.573A.119.119,0,0,0,73,62.861a3.817,3.817,0,0,1,.122-.9,3.586,3.586,0,0,0,.026-.855l.146-.261A15.172,15.172,0,0,0,75.46,58.9a38.588,38.588,0,0,0,5.3-6.667c.416-.646.8-1.31,1.2-1.966.052-.086.123-.16.251-.327-.048.252-.085.4-.1.541s-.008.31-.015.463a6.294,6.294,0,0,1-.111,1.112c-.083.359-.054.736-.119,1.107-.074.428-.126.868-.159,1.3-.055.765-.281,1.507-.31,2.276-.29,1.185-.467,2.393-.743,3.585-.328,1.423-.7,2.835-1.1,4.24a59.389,59.389,0,0,1-2.323,6.537,63,63,0,0,1-2.89,5.976,65.578,65.578,0,0,1-4.062,6.471c-.863,1.222-1.767,2.418-2.732,3.566-.751.9-1.5,1.795-2.277,2.67Q63.326,91.969,61.227,94C61.12,94.1,61.037,94.258,60.846,94.229Z" transform="translate(10.38 1.728)" fill="#81ba41"/>
    <path id="Path_16" data-name="Path 16" d="M60.846,94.229c0-.066-.017-.148.014-.192.538-.768.959-1.6,1.437-2.407.521-.877.99-1.782,1.489-2.67.757-1.346,1.435-2.731,2.11-4.115.492-1.01.973-2.028,1.409-3.064.45-1.072.874-2.157,1.318-3.232.751-1.813,1.32-3.687,1.961-5.535.281-.809.479-1.649.709-2.477.2-.724.379-1.454.587-2.176a10.884,10.884,0,0,0,.311-1.384,7.357,7.357,0,0,1,.234-1c.074-.249-.018-.533.168-.756-.065-.4.157-.764.154-1.159a3.6,3.6,0,0,1,.117-.567c.032-.191-.035-.4.1-.573A.119.119,0,0,0,73,62.861a3.817,3.817,0,0,1,.122-.9,3.586,3.586,0,0,0,.026-.855l.146-.261A15.172,15.172,0,0,0,75.46,58.9a38.588,38.588,0,0,0,5.3-6.667c.416-.646.8-1.31,1.2-1.966.052-.086.123-.16.251-.327-.048.252-.085.4-.1.541s-.008.31-.015.463a6.294,6.294,0,0,1-.111,1.112c-.083.359-.054.736-.119,1.107-.074.428-.126.868-.159,1.3-.055.765-.281,1.507-.31,2.276-.29,1.185-.467,2.393-.743,3.585-.328,1.423-.7,2.835-1.1,4.24a59.389,59.389,0,0,1-2.323,6.537,63,63,0,0,1-2.89,5.976,65.578,65.578,0,0,1-4.062,6.471c-.863,1.222-1.767,2.418-2.732,3.566-.751.9-1.5,1.795-2.277,2.67Q63.326,91.969,61.227,94C61.12,94.1,61.037,94.258,60.846,94.229Z" transform="translate(10.38 1.728)" opacity="0.4" fill="url(#linear-gradient)"/>
    <path id="Path_17" data-name="Path 17" d="M60.846,94.229c0-.066-.017-.148.014-.192.538-.768.959-1.6,1.437-2.407.521-.877.99-1.782,1.489-2.67.757-1.346,1.435-2.731,2.11-4.115.492-1.01.973-2.028,1.409-3.064.45-1.072.874-2.157,1.318-3.232.751-1.813,1.32-3.687,1.961-5.535.281-.809.479-1.649.709-2.477.2-.724.379-1.454.587-2.176a10.884,10.884,0,0,0,.311-1.384,7.357,7.357,0,0,1,.234-1c.074-.249-.018-.533.168-.756-.065-.4.157-.764.154-1.159a3.6,3.6,0,0,1,.117-.567c.032-.191-.035-.4.1-.573A.119.119,0,0,0,73,62.861a3.817,3.817,0,0,1,.122-.9,3.586,3.586,0,0,0,.026-.855l.146-.261A15.172,15.172,0,0,0,75.46,58.9a38.588,38.588,0,0,0,5.3-6.667c.416-.646.8-1.31,1.2-1.966.052-.086.123-.16.251-.327-.048.252-.085.4-.1.541s-.008.31-.015.463a6.294,6.294,0,0,1-.111,1.112c-.083.359-.054.736-.119,1.107-.074.428-.126.868-.159,1.3-.055.765-.281,1.507-.31,2.276-.29,1.185-.467,2.393-.743,3.585-.328,1.423-.7,2.835-1.1,4.24a59.389,59.389,0,0,1-2.323,6.537,63,63,0,0,1-2.89,5.976,65.578,65.578,0,0,1-4.062,6.471c-.863,1.222-1.767,2.418-2.732,3.566-.751.9-1.5,1.795-2.277,2.67Q63.326,91.969,61.227,94C61.12,94.1,61.037,94.258,60.846,94.229Z" transform="translate(10.38 1.728)" fill="url(#linear-gradient-2)"/>
    <path id="Path_18" data-name="Path 18" d="M55.968,65.243c.011.066,0,.146.034.194.569.808,1.144,1.609,1.714,2.414.089.125.171.254.256.382.661,1.007,1.4,1.962,2.07,2.961.6.889,1.212,1.774,1.847,2.638.652.883,1.236,1.816,1.922,2.673.163.2.273.45.43.658.721.967,1.381,1.976,2.1,2.944.47.632.859,1.324,1.337,1.949.493.646.928,1.33,1.409,1.984.469.635.9,1.3,1.378,1.927a.683.683,0,0,1,.214.533,2.767,2.767,0,0,1-.868-.467q-2.731-1.644-5.443-3.319c-1.811-1.111-3.616-2.237-5.426-3.35-1.509-.928-3.023-1.845-4.534-2.772q-2.379-1.457-4.754-2.92-2.6-1.6-5.209-3.194c-.869-.53-1.74-1.058-2.608-1.589a1.027,1.027,0,0,1-.163-.17c.17-.006.3-.014.43-.014.624,0,1.247.008,1.87,0,.709-.008,1.407-.148,2.11-.217a19.36,19.36,0,0,0,2.473-.464c.794-.183,1.571-.442,2.345-.7A31.877,31.877,0,0,0,55.76,65.22Z" transform="translate(0 9.588)" fill="#32afa5"/>
    <path id="Path_19" data-name="Path 19" d="M55.968,65.243c.011.066,0,.146.034.194.569.808,1.144,1.609,1.714,2.414.089.125.171.254.256.382.661,1.007,1.4,1.962,2.07,2.961.6.889,1.212,1.774,1.847,2.638.652.883,1.236,1.816,1.922,2.673.163.2.273.45.43.658.721.967,1.381,1.976,2.1,2.944.47.632.859,1.324,1.337,1.949.493.646.928,1.33,1.409,1.984.469.635.9,1.3,1.378,1.927a.683.683,0,0,1,.214.533,2.767,2.767,0,0,1-.868-.467q-2.731-1.644-5.443-3.319c-1.811-1.111-3.616-2.237-5.426-3.35-1.509-.928-3.023-1.845-4.534-2.772q-2.379-1.457-4.754-2.92-2.6-1.6-5.209-3.194c-.869-.53-1.74-1.058-2.608-1.589a1.027,1.027,0,0,1-.163-.17c.17-.006.3-.014.43-.014.624,0,1.247.008,1.87,0,.709-.008,1.407-.148,2.11-.217a19.36,19.36,0,0,0,2.473-.464c.794-.183,1.571-.442,2.345-.7A31.877,31.877,0,0,0,55.76,65.22Z" transform="translate(0 9.588)" opacity="0.6" fill="url(#linear-gradient-5)"/>
    <path id="Path_20" data-name="Path 20" d="M55.968,65.243c.011.066,0,.146.034.194.569.808,1.144,1.609,1.714,2.414.089.125.171.254.256.382.661,1.007,1.4,1.962,2.07,2.961.6.889,1.212,1.774,1.847,2.638.652.883,1.236,1.816,1.922,2.673.163.2.273.45.43.658.721.967,1.381,1.976,2.1,2.944.47.632.859,1.324,1.337,1.949.493.646.928,1.33,1.409,1.984.469.635.9,1.3,1.378,1.927a.683.683,0,0,1,.214.533,2.767,2.767,0,0,1-.868-.467q-2.731-1.644-5.443-3.319c-1.811-1.111-3.616-2.237-5.426-3.35-1.509-.928-3.023-1.845-4.534-2.772q-2.379-1.457-4.754-2.92-2.6-1.6-5.209-3.194c-.869-.53-1.74-1.058-2.608-1.589a1.027,1.027,0,0,1-.163-.17c.17-.006.3-.014.43-.014.624,0,1.247.008,1.87,0,.709-.008,1.407-.148,2.11-.217a19.36,19.36,0,0,0,2.473-.464c.794-.183,1.571-.442,2.345-.7A31.877,31.877,0,0,0,55.76,65.22Z" transform="translate(0 9.588)" fill="url(#linear-gradient-2)"/>
    <path id="Path_21" data-name="Path 21" d="M75.7,62.93l-.146.264c-.552.4-1.113.78-1.649,1.193-.453.348-.937.646-1.418.954a26.991,26.991,0,0,1-3.065,1.646c-.532.251-1.07.489-1.623.688-.614.22-1.216.473-1.847.646-.837.228-1.668.473-2.522.647a11.069,11.069,0,0,0-1.592.347.977.977,0,0,1-.262.028,1.4,1.4,0,0,0-.711.119c-.082.051-.219.012-.33.019a1.593,1.593,0,0,0-.715.1c-.1.057-.261.019-.393.029a2.211,2.211,0,0,0-.979.117c-.068.039-.174.011-.264.011l-1.8,0c.191-.185.372-.384.575-.553a72.036,72.036,0,0,0,6.149-5.929c.825-.871,1.582-1.805,2.368-2.713,1.222-1.411,2.342-2.9,3.445-4.406,1.2-1.626,2.319-3.3,3.385-5.016.678-1.09,1.321-2.2,1.97-3.311.27-.458.51-.933.769-1.4a.65.65,0,0,1,.143-.139c.125.072.066.191.086.282s.009.179.028.265c.023.108.076.21.091.318.1.746.2,1.492.3,2.237.039.285.082.569.114.854a2.736,2.736,0,0,0,.1.789.565.565,0,0,1,.015.2c.035,1.2.188,2.393.168,3.595-.02,1.269-.009,2.539-.031,3.809-.008.441-.069.882-.1,1.323-.034.419-.031.839-.1,1.259C75.758,61.775,75.751,62.356,75.7,62.93Z" transform="translate(7.965 0.91)" fill="#32afa5"/>
    <path id="Path_22" data-name="Path 22" d="M75.7,62.93l-.146.264c-.552.4-1.113.78-1.649,1.193-.453.348-.937.646-1.418.954a26.991,26.991,0,0,1-3.065,1.646c-.532.251-1.07.489-1.623.688-.614.22-1.216.473-1.847.646-.837.228-1.668.473-2.522.647a11.069,11.069,0,0,0-1.592.347.977.977,0,0,1-.262.028,1.4,1.4,0,0,0-.711.119c-.082.051-.219.012-.33.019a1.593,1.593,0,0,0-.715.1c-.1.057-.261.019-.393.029a2.211,2.211,0,0,0-.979.117c-.068.039-.174.011-.264.011l-1.8,0c.191-.185.372-.384.575-.553a72.036,72.036,0,0,0,6.149-5.929c.825-.871,1.582-1.805,2.368-2.713,1.222-1.411,2.342-2.9,3.445-4.406,1.2-1.626,2.319-3.3,3.385-5.016.678-1.09,1.321-2.2,1.97-3.311.27-.458.51-.933.769-1.4a.65.65,0,0,1,.143-.139c.125.072.066.191.086.282s.009.179.028.265c.023.108.076.21.091.318.1.746.2,1.492.3,2.237.039.285.082.569.114.854a2.736,2.736,0,0,0,.1.789.565.565,0,0,1,.015.2c.035,1.2.188,2.393.168,3.595-.02,1.269-.009,2.539-.031,3.809-.008.441-.069.882-.1,1.323-.034.419-.031.839-.1,1.259C75.758,61.775,75.751,62.356,75.7,62.93Z" transform="translate(7.965 0.91)" opacity="0.6" fill="url(#linear-gradient-5)"/>
    <path id="Path_23" data-name="Path 23" d="M75.7,62.93l-.146.264c-.552.4-1.113.78-1.649,1.193-.453.348-.937.646-1.418.954a26.991,26.991,0,0,1-3.065,1.646c-.532.251-1.07.489-1.623.688-.614.22-1.216.473-1.847.646-.837.228-1.668.473-2.522.647a11.069,11.069,0,0,0-1.592.347.977.977,0,0,1-.262.028,1.4,1.4,0,0,0-.711.119c-.082.051-.219.012-.33.019a1.593,1.593,0,0,0-.715.1c-.1.057-.261.019-.393.029a2.211,2.211,0,0,0-.979.117c-.068.039-.174.011-.264.011l-1.8,0c.191-.185.372-.384.575-.553a72.036,72.036,0,0,0,6.149-5.929c.825-.871,1.582-1.805,2.368-2.713,1.222-1.411,2.342-2.9,3.445-4.406,1.2-1.626,2.319-3.3,3.385-5.016.678-1.09,1.321-2.2,1.97-3.311.27-.458.51-.933.769-1.4a.65.65,0,0,1,.143-.139c.125.072.066.191.086.282s.009.179.028.265c.023.108.076.21.091.318.1.746.2,1.492.3,2.237.039.285.082.569.114.854a2.736,2.736,0,0,0,.1.789.565.565,0,0,1,.015.2c.035,1.2.188,2.393.168,3.595-.02,1.269-.009,2.539-.031,3.809-.008.441-.069.882-.1,1.323-.034.419-.031.839-.1,1.259C75.758,61.775,75.751,62.356,75.7,62.93Z" transform="translate(7.965 0.91)" fill="url(#linear-gradient-2)"/>
    <path id="Path_24" data-name="Path 24" d="M52.626,67.589l-.208-.023c-.123-.207-.233-.424-.372-.621Q50.8,65.153,49.533,63.37c-.484-.686-.976-1.366-1.463-2.05-.076-.106-.137-.225-.224-.365a.851.851,0,0,1,.637-.009,12.841,12.841,0,0,0,1.306.2,12.687,12.687,0,0,0,1.577.18c.284.031.566.08.848.113a2.331,2.331,0,0,1,.785.111.15.15,0,0,0,.065.008c.6-.034,1.187.125,1.784.146a8.078,8.078,0,0,1,1.454.108,4.026,4.026,0,0,0,.8.025q1.9.018,3.8.034a4.474,4.474,0,0,1-.786.681c-.461.4-.985.729-1.468,1.108-.809.637-1.66,1.215-2.522,1.776A36.29,36.29,0,0,1,52.96,67.3C52.82,67.377,52.678,67.424,52.626,67.589Z" transform="translate(3.342 7.975)" fill="#32afa5"/>
    <path id="Path_25" data-name="Path 25" d="M52.626,67.589l-.208-.023c-.123-.207-.233-.424-.372-.621Q50.8,65.153,49.533,63.37c-.484-.686-.976-1.366-1.463-2.05-.076-.106-.137-.225-.224-.365a.851.851,0,0,1,.637-.009,12.841,12.841,0,0,0,1.306.2,12.687,12.687,0,0,0,1.577.18c.284.031.566.08.848.113a2.331,2.331,0,0,1,.785.111.15.15,0,0,0,.065.008c.6-.034,1.187.125,1.784.146a8.078,8.078,0,0,1,1.454.108,4.026,4.026,0,0,0,.8.025q1.9.018,3.8.034a4.474,4.474,0,0,1-.786.681c-.461.4-.985.729-1.468,1.108-.809.637-1.66,1.215-2.522,1.776A36.29,36.29,0,0,1,52.96,67.3C52.82,67.377,52.678,67.424,52.626,67.589Z" transform="translate(3.342 7.975)" opacity="0.6" fill="url(#linear-gradient-9)"/>
    <path id="Path_26" data-name="Path 26" d="M52.626,67.589l-.208-.023c-.123-.207-.233-.424-.372-.621Q50.8,65.153,49.533,63.37c-.484-.686-.976-1.366-1.463-2.05-.076-.106-.137-.225-.224-.365a.851.851,0,0,1,.637-.009,12.841,12.841,0,0,0,1.306.2,12.687,12.687,0,0,0,1.577.18c.284.031.566.08.848.113a2.331,2.331,0,0,1,.785.111.15.15,0,0,0,.065.008c.6-.034,1.187.125,1.784.146a8.078,8.078,0,0,1,1.454.108,4.026,4.026,0,0,0,.8.025q1.9.018,3.8.034a4.474,4.474,0,0,1-.786.681c-.461.4-.985.729-1.468,1.108-.809.637-1.66,1.215-2.522,1.776A36.29,36.29,0,0,1,52.96,67.3C52.82,67.377,52.678,67.424,52.626,67.589Z" transform="translate(3.342 7.975)" fill="url(#linear-gradient-10)"/>
    <g id="Group_1" data-name="Group 1" transform="translate(89.415 44.6)">
      <ellipse id="Ellipse_1" data-name="Ellipse 1" cx="3.479" cy="3.499" rx="3.479" ry="3.499" fill="#81ba41"/>
      <ellipse id="Ellipse_2" data-name="Ellipse 2" cx="1.125" cy="0.666" rx="1.125" ry="0.666" transform="translate(0.686 1.882) rotate(-39.865)" opacity="0.8" fill="url(#linear-gradient-11)"/>
    </g>
  </g>
</svg>
